<?xml version="1.0" encoding="utf-8"?>
<!-- Generator: Adobe Illustrator 17.1.0, SVG Export Plug-In . SVG Version: 6.00 Build 0)  -->
<!DOCTYPE svg PUBLIC "-//W3C//DTD SVG 1.1//EN" "http://www.w3.org/Graphics/SVG/1.1/DTD/svg11.dtd">
<svg version="1.1" id="Layer_1" xmlns:sketch="http://www.bohemiancoding.com/sketch/ns"
	 xmlns="http://www.w3.org/2000/svg" xmlns:xlink="http://www.w3.org/1999/xlink" x="0px" y="0px" viewBox="0 98.7 595.3 644.5"
	 enable-background="new 0 98.7 595.3 644.5" xml:space="preserve">
<g>
	<path d="M568.5,743.2H26.8c-15,0-25.7-12.8-25.7-25.7V173.6c0-15,12.8-25.7,25.7-25.7h541.7c15,0,25.7,12.8,25.7,25.7v541.7
		C594.2,730.4,583.5,743.2,568.5,743.2z M24.6,162.9c-6.4,0-10.7,4.3-10.7,10.7v541.7c0,6.4,4.3,10.7,10.7,10.7h541.7
		c6.4,0,10.7-4.3,10.7-10.7V173.6c0-6.4-4.3-10.7-10.7-10.7H24.6z"/>
	<rect x="7.5" y="282.8" width="580.3" height="15"/>
	<g>
		<path d="M78.2,210c-4.3,0-8.6-2.1-8.6-8.6v-94.2c0-4.3,2.1-8.6,8.6-8.6c4.3,0,8.6,2.1,8.6,8.6v94.2C86.7,205.7,82.4,210,78.2,210z
			"/>
		<path d="M166,210c-4.3,0-8.6-2.1-8.6-8.6v-94.2c0-4.3,2.1-8.6,8.6-8.6s8.6,2.1,8.6,8.6v94.2C172.4,205.7,170.2,210,166,210z"/>
		<path d="M251.6,210c-4.3,0-8.6-2.1-8.6-8.6v-94.2c0-4.3,2.1-8.6,8.6-8.6c4.3,0,8.6,2.1,8.6,8.6v94.2
			C260.2,205.7,258,210,251.6,210z"/>
		<path d="M339.4,210c-4.3,0-8.6-2.1-8.6-8.6v-94.2c0-4.3,2.1-8.6,8.6-8.6s8.6,2.1,8.6,8.6v94.2C348,205.7,343.7,210,339.4,210z"/>
		<path d="M427.2,210c-4.3,0-8.6-2.1-8.6-8.6v-94.2c0-4.3,2.1-8.6,8.6-8.6c4.3,0,8.6,2.1,8.6,8.6v94.2
			C435.8,205.7,431.5,210,427.2,210z"/>
		<path d="M515,210c-4.3,0-8.6-2.1-8.6-8.6v-94.2c0-4.3,2.1-8.6,8.6-8.6c4.3,0,8.6,2.1,8.6,8.6v94.2C521.4,205.7,519.3,210,515,210z
			"/>
	</g>
	<g>
		<path d="M138.1,569.8l30-4.3c2.1,17.1,8.6,30,17.1,36.4c8.6,6.4,19.3,10.7,30,10.7c15,0,25.7-4.3,36.4-15
			c8.6-10.7,15-21.4,15-36.4s-4.3-25.7-12.8-34.3c-8.6-8.6-21.4-12.8-34.3-12.8c-6.4,0-12.8,0-21.4,2.1l2.1-25.7c2.1,0,4.3,0,4.3,0
			c12.8,0,23.6-2.1,34.3-10.7c10.7-6.4,15-17.1,15-30c0-10.7-4.3-21.4-10.7-27.8c-8.6-6.4-17.1-10.7-30-10.7
			c-12.8,0-21.4,4.3-30,10.7c-8.6,6.4-12.8,17.1-15,32.1L136,452c4.3-21.4,12.8-36.4,25.7-47.1c12.8-10.7,30-17.1,49.2-17.1
			c12.8,0,25.7,2.1,36.4,8.6c10.7,6.4,19.3,12.8,25.7,23.6c6.4,10.7,8.6,21.4,8.6,32.1c0,10.7-2.1,21.4-8.6,30s-15,15-25.7,21.4
			c15,2.1,25.7,10.7,34.3,21.4s12.8,23.6,12.8,38.5c0,21.4-8.6,38.5-23.6,53.5c-15,15-36.4,21.4-60,21.4c-21.4,0-38.5-6.4-53.5-19.3
			S140.3,589,138.1,569.8z"/>
		<path d="M442.2,634h-30V441.3c-6.4,6.4-17.1,15-27.8,21.4c-12.8,6.4-21.4,12.8-32.1,15v-30c17.1-8.6,32.1-17.1,45-30
			c12.8-10.7,21.4-21.4,25.7-32.1h19.3L442.2,634L442.2,634z"/>
	</g>
</g>
</svg>
