<svg xmlns="http://www.w3.org/2000/svg" xmlns:xlink="http://www.w3.org/1999/xlink" version="1.1" id="Your_Icon" x="0px" y="0px" width="100px" height="100px" viewBox="0 0 100 100" enable-background="new 0 0 100 100" xml:space="preserve">
<g transform="translate(0.000000,2000.000000) scale(0.100000,-0.100000)">
	<path fill="#000000" d="M382.978,19848.162c-12.461-1.953-24.18-7.764-33.418-16.582c-11.084-10.498-17.842-24.385-19.375-39.639   c-0.361-3.594-0.527-23.438-0.42-56.484l0.156-50.938l12.939-0.156c7.07-0.107,13.672-0.059,14.619,0.156l1.738,0.312v53.164   c0,52.1,0,53.262,1.113,57.109c2.422,8.867,9.131,17.002,17.363,21.064c8.447,4.121-19.473,3.75,288.857,3.643l276.768-0.156   l4.219-1.475c9.238-3.281,15.469-8.818,19.853-17.529c3.955-7.92,3.691,5.068,3.477-171.562   c-0.098-147.598-0.156-158.574-0.996-161.27c-3.75-11.924-12.568-20.635-24.443-24.121c-2.852-0.791-6.758-0.898-37.324-1.104   l-34.199-0.166l-0.107-47.773l-0.156-47.822l-19.746,20.273c-10.879,11.084-25.127,25.703-31.729,32.354   c-6.543,6.709-18.682,19.111-26.865,27.607l-14.99,15.42h-35.791h-35.84v-14.521v-14.512l29.717-0.059h29.668l23.75-24.385   c53.477-54.951,64.404-66.143,76.543-78.34c12.305-12.344,12.773-12.773,15.781-13.613c5.703-1.641,11.25,0,15.156,4.434   c3.799,4.277,3.643,1.631,3.643,59.756v52.1l21.006,0.264c16.475,0.215,21.797,0.42,24.912,1.113   c25.498,5.488,43.818,23.379,49.941,48.877c0.947,3.75,1.006,11.611,1.104,165.381c0.215,177.48,0.371,166.445-3.008,176.68   c-7.705,23.076-26.865,38.906-51.728,42.764c-2.266,0.312-97.979,0.527-280.566,0.469   C436.455,19848.846,386.67,19848.738,382.978,19848.162z"/>
	<path fill="#000000" d="M51.943,19644.93c-24.707-4.492-43.76-22.07-50.518-46.562L0,19593.191v-164.697   c0-135.4,0.107-165.225,0.684-167.598c3.115-12.832,8.027-22.119,16.318-30.674c8.867-9.229,17.842-14.463,30.771-17.998   c3.594-0.996,5.752-1.104,22.969-1.318c10.449-0.107,22.695-0.215,27.178-0.312l8.184-0.107l0.264-54.375   c0.322-61.123-0.049-56.318,4.385-60.859c4.854-4.961,12.402-5.703,18.262-1.797c1.162,0.791,16.211,15.469,33.418,32.568   s43.447,43.184,58.223,57.91l26.973,26.816h182.861c119.512,0,184.014,0.205,186.182,0.527   c27.021,4.385,48.564,26.23,52.412,53.105c0.43,3.008,0.527,48.613,0.43,166.494l-0.156,162.314l-1.377,5.02   c-3.008,10.771-8.076,19.902-15.312,27.656c-8.545,9.141-19.102,15.205-32.676,18.691c-3.164,0.791-24.072,0.84-283.73,0.947   C100.303,19645.613,55.322,19645.506,51.943,19644.93z M614.922,19615.633c9.502-2.432,17.744-8.975,21.914-17.422   c4.062-8.291,3.75,6.123,3.75-170.293c0-154.775,0-158.525-1.006-162.373c-3.174-12.246-12.617-21.855-24.6-24.971   c-2.803-0.684-23.281-0.791-191.25-0.791H235.596l-49.941-49.619l-49.99-49.57l-0.156,49.57l-0.107,49.619H96.445   c-37.695,0-39.062,0.049-42.861,1.104c-5.176,1.426-9.824,4.072-13.994,7.92c-4.219,3.965-6.758,7.764-8.867,13.301l-1.689,4.336   l-0.156,159.941c-0.156,179.004-0.479,163.535,3.75,171.982c4.111,8.232,12.354,14.834,21.592,17.266   c3.74,0.947,10.029,0.996,280.244,0.996C607.852,19616.688,610.918,19616.688,614.922,19615.633z"/>
</g>
</svg>