<svg xmlns="http://www.w3.org/2000/svg" xmlns:xlink="http://www.w3.org/1999/xlink" version="1.1" id="Your_Icon" x="0px" y="0px" width="100px" height="100px" viewBox="0 0 100 100" enable-background="new 0 0 100 100" xml:space="preserve">
<path fill="#000000" d="M65.185,80.391l-29.543-0.027l-7.791-22.127c-7.104-6.329-11.169-15.379-11.169-24.9  C16.682,14.955,31.637,0,50.02,0c18.382,0,33.336,14.954,33.336,33.335c0,9.511-4.057,18.553-11.146,24.881L65.185,80.391z   M37.926,77.141l24.897,0.022l6.583-20.78l0.344-0.297c6.597-5.729,10.38-14.021,10.38-22.75c0-16.603-13.507-30.11-30.11-30.11  s-30.112,13.507-30.112,30.11c0,8.73,3.784,17.022,10.382,22.75l0.323,0.279L37.926,77.141z"/>
<rect x="36.425" y="83.638" fill="#000000" width="27.221" height="3.226"/>
<rect x="36.435" y="90.155" fill="#000000" width="27.221" height="3.225"/>
<rect x="43.854" y="96.762" transform="matrix(1 0.002 -0.002 1 0.194 -0.0985)" fill="#000000" width="12.383" height="3.226"/>
</svg>