<?xml version="1.0" encoding="utf-8"?>
<!-- Generator: Adobe Illustrator 17.1.0, SVG Export Plug-In . SVG Version: 6.00 Build 0)  -->
<!DOCTYPE svg PUBLIC "-//W3C//DTD SVG 1.1//EN" "http://www.w3.org/Graphics/SVG/1.1/DTD/svg11.dtd">
<svg version="1.1" id="Layer_1" xmlns:sketch="http://www.bohemiancoding.com/sketch/ns"
	 xmlns="http://www.w3.org/2000/svg" xmlns:xlink="http://www.w3.org/1999/xlink" x="0px" y="0px" viewBox="0 0 595.3 841.9"
	 enable-background="new 0 0 595.3 841.9" xml:space="preserve">
<g id="Page-1_1_" sketch:type="MSPage">
	<g id="Artboard-1_1_" sketch:type="MSArtboardGroup">
		<g id="Path-12-_x2B_-Oval-9-_x2B_-Oval-9-copy_1_" transform="translate(22.000000, 18.000000)" sketch:type="MSLayerGroup">
			<path id="Path-12_1_" sketch:type="MSShapeGroup" fill="none" stroke="#000000" stroke-width="25" d="M301.8,209.5
				c-168.1,0-177,92.9-177,168.1s-19.9,168.2-53.1,199.3c-30.9,30.9-73.1,62-73.1,84.1c0,22.1,42,73.1,303.2,73.1
				S593.9,681,593.9,661s-62-62-84.1-104c-19.9-42-42-73.1-42-157.1S467.8,209.5,301.8,209.5z"/>
			<path id="Oval-9_1_" sketch:type="MSShapeGroup" fill="none" stroke="#000000" stroke-width="25" d="M341.6,213.9
				c0-4.4,2.3-8.8,2.3-13.3c0-35.5-22.1-62-46.5-62c-24.4,0-46.5,28.8-46.5,62c0,4.4,0,8.8,2.3,13.3"/>
			<path id="Oval-9-copy_1_" sketch:type="MSShapeGroup" fill="none" stroke="#000000" stroke-width="25" d="M224.3,731.7
				c-4.4,6.7-6.7,15.5-6.7,22.1c0,28.8,35.5,53.1,77.5,53.1s77.5-24.4,77.5-53.1c0-8.8-2.3-15.5-6.7-22.1"/>
		</g>
	</g>
</g>
</svg>
