<?xml version="1.0" encoding="utf-8"?>
<!-- Generator: Adobe Illustrator 17.1.0, SVG Export Plug-In . SVG Version: 6.00 Build 0)  -->
<!DOCTYPE svg PUBLIC "-//W3C//DTD SVG 1.1//EN" "http://www.w3.org/Graphics/SVG/1.1/DTD/svg11.dtd">
<svg version="1.1" id="Layer_1" xmlns="http://www.w3.org/2000/svg" xmlns:xlink="http://www.w3.org/1999/xlink" x="0px" y="0px"
	 viewBox="0 0 566.9 379.6" enable-background="new 0 0 566.9 379.6" xml:space="preserve">
<g>
	<path fill="#1B234E" d="M461.8,0.1v318.5h-28.4V0.1H461.8z M381.2,290.2h-40.1V105.3h-28.4v184.8H289V105.3h-28.4v184.8h-23.8
		V105.3h-28.4v184.8h-23.4V105.3h-28.4v265.4h28.4v-52.1h224.7h0V0.1h-28.4V290.2z M132.4,105.3v213.3H0V105.3h28.4v184.8h75.5
		v-23.7H52.2V105.3H132.4z M103.9,133.8H80.6V238h23.4V133.8z"/>
	<circle fill="#1B234E" cx="274.8" cy="47.1" r="14.2"/>
	<circle fill="#1B234E" cx="259.1" cy="77.6" r="14.2"/>
	<circle fill="#1B234E" cx="294.5" cy="77.6" r="14.2"/>
	<circle fill="#1B234E" cx="74.6" cy="77.6" r="14.2"/>
	<circle fill="#1B234E" cx="110" cy="77.6" r="14.2"/>
	<g>
		<path fill="#7D002E" d="M203.1,362.7c-0.1,0-0.1,0-0.2,0.1c-1,2.7-2.2,6.2-2.7,7.9c-0.5,0-1-0.1-2.1-0.1c-1.2,0-2.3,0.1-2.7,0.1
			c1-1.9,2.5-5.1,4.3-9.3l7.2-16.8c0.6-1.3,0.8-1.7,1-1.7c0.2,0,0.5,0.3,1.1,1.7c0.5,1,4.1,9.1,7.3,16.3c1.7,3.8,3.7,8.2,4.8,9.7
			c-0.9,0-1.9-0.1-2.4-0.1c-1.3,0-2.8,0.1-3.4,0.1c-0.6-1.7-2.2-5.6-3.3-8c0-0.1,0-0.1-0.1-0.1H203.1z M211,359.7
			c0.1,0,0.1,0,0.1-0.1l-3.6-9l-3.4,9c0,0.1,0,0.1,0.1,0.1H211z"/>
		<path fill="#7D002E" d="M227,353.9c0-5.2-0.2-9.3-0.5-10.4c0.4,0,1.6,0.1,2.3,0.1c1.3,0,2.6,0,3.1-0.1c-0.1,1.4-0.4,5.3-0.4,10.3
			v6.1c0,6.5,0.1,7.4,0.3,7.5c0.1,0.2,0.5,0.3,0.9,0.3c0.8,0.1,1.9,0.1,3.4,0.1c3.5,0,5.5-0.3,6.5-0.8c-0.4,0.9-0.9,3-1.1,3.8
			c-0.2,0.1-0.7,0.1-2.5,0.1c-5.3,0-7.4-0.2-10-0.2c-1.3,0-2,0-2.5,0.1c0.1-1.3,0.4-5.2,0.4-10.4V353.9z"/>
		<path fill="#7D002E" d="M256.5,364.9c1.2,1.5,3.7,3.3,6.6,3.3c3,0,4.3-1.7,4.3-3.9c0-1.8-0.7-3-3.5-4.9l-1.8-1.2
			c-4-2.6-4.9-5.1-4.9-7.7c0-4,3.1-7.4,8.4-7.4c1.5,0,2.7,0.2,3.6,0.3c1.2,0.2,2,0.3,2.3,0.3c-0.1,0.4-0.3,2.8-0.3,4.7
			c-0.7-0.8-2.5-2.4-5.7-2.4c-2.5,0-4,1.6-4,3.5c0,1.7,0.4,2.8,3.3,4.7l1.8,1.2c4.4,2.9,5.6,5,5.6,8c0,2-0.9,4.8-3.5,6.5
			c-1.8,1.2-4.1,1.6-5.8,1.6c-2.4,0-5.2-0.6-6.6-1.6C256.3,369.1,256.5,366.4,256.5,364.9z"/>
		<path fill="#7D002E" d="M279.4,353.9c0-5.2-0.2-9-0.5-10.4c0.4,0,1.4,0.1,2.2,0.1c1.3,0,2.5-0.1,3-0.1c-0.1,1.3-0.3,4.6-0.3,10
			v0.6c0,0.1,0,0.1,0.1,0.1h13.7c0.1,0,0.1,0,0.1-0.1v-0.6c0-5.2-0.2-8.5-0.4-9.9c0.5,0,1.3,0.1,2.3,0.1c1.2,0,2.2,0,3-0.1
			c-0.1,1.4-0.3,5.4-0.3,10.5v6.4c0,4.3,0.1,8.8,0.3,10.4c-0.4,0-1.5-0.1-2.3-0.1c-1.1,0-2.7,0.1-3,0.1c0.2-1.6,0.4-5.9,0.4-10.5
			v-2.7c0-0.1,0-0.1-0.1-0.1h-13.7c-0.1,0-0.1,0.1-0.1,0.1v2.7c0,4.3,0.2,8.8,0.4,10.4c-0.4,0-1.2-0.1-2.1-0.1
			c-1.4,0-2.6,0.1-3.2,0.1c0.2-1.6,0.4-5.9,0.4-10.5V353.9z"/>
		<path fill="#7D002E" d="M316,362.7c-0.1,0-0.1,0-0.2,0.1c-1,2.7-2.2,6.2-2.7,7.9c-0.5,0-1-0.1-2.1-0.1c-1.2,0-2.3,0.1-2.7,0.1
			c1-1.9,2.5-5.1,4.3-9.3l7.2-16.8c0.6-1.3,0.8-1.7,1-1.7c0.2,0,0.5,0.3,1.1,1.7c0.5,1,4.1,9.1,7.3,16.3c1.7,3.8,3.7,8.2,4.8,9.7
			c-0.9,0-1.9-0.1-2.4-0.1c-1.3,0-2.8,0.1-3.4,0.1c-0.6-1.7-2.2-5.6-3.3-8c0-0.1,0-0.1-0.1-0.1H316z M323.8,359.7
			c0.1,0,0.1,0,0.1-0.1l-3.6-9l-3.4,9c0,0.1,0,0.1,0.1,0.1H323.8z"/>
		<path fill="#7D002E" d="M339.8,353.9c0-5.2-0.1-9.1-0.5-10.4c0.8,0,1.5,0.1,2.2,0.1c0.7,0,3.9-0.1,5.4-0.1c2.9,0,5.2,0.4,6.8,1.3
			c1.9,1.1,3.4,3.2,3.4,6c0,3-1.6,5.6-4.4,7.5c2.2,3,4.7,6.6,7,9.2c1.6,1.8,2.7,2.8,3.5,3.2c-0.6,0.2-2.1,0.3-3.2,0.3
			c-2.2,0-3.2-0.6-4.5-1.9c-2.1-2-5.1-7-6.6-9c-0.1-0.2-0.3-0.3-0.4-0.3c-0.8,0-2.8,0-4.1,0c-0.1,0-0.1,0.1-0.1,0.2v1
			c0,4.3,0.2,8.1,0.4,9.8c-0.5,0-1.3-0.1-2.2-0.1c-0.9,0-2.6,0.1-3.1,0.1c0.2-1.5,0.4-5.9,0.4-10.5V353.9z M344.2,356.3
			c0,0.3,0,0.3,0.1,0.4c0.7,0.2,2.2,0.3,3.9,0.3c1,0,1.6-0.1,2-0.4c1.2-0.9,2.3-2.5,2.3-4.8c0-3.8-2.7-5.7-6-5.7c-1,0-1.9,0-2.3,0.1
			c-0.1,0-0.1,0.1-0.1,0.3V356.3z"/>
		<path fill="#7D002E" d="M364.6,357.2c0-6.9,4.7-14.3,14.6-14.3c8.8,0,14.1,6.1,14.1,13.6c0,5.2-2.1,9.2-5.9,12l4.8,2.6
			c6.9,3.8,11.2,5.2,15.8,5.2c2.3,0,4.9-0.3,7.3-1.2c-0.1,0.5-0.4,1.8-0.4,2.3c-2.6,1.7-6.4,2.2-9.2,2.2c-5.2,0-9.7-1.7-17-6
			l-5.3-3.1c-1.8,0.7-3.3,0.8-4.7,0.8C368.5,371.2,364.6,363.4,364.6,357.2z M388.2,357.5c0-6.4-3.7-11.8-9.9-11.8
			c-5,0-8.6,3.9-8.6,10.5c0,6.9,3.7,12.2,9.9,12.2C383.1,368.4,388.2,366,388.2,357.5z"/>
		<path fill="#7D002E" d="M411.7,353.9c0-5.9-0.2-9.3-0.4-10.5c0.7,0.1,2,0.1,3,0.1h8.7c1.3,0,2.7-0.1,3.3-0.2
			c-0.2,1.3-0.3,3.1-0.3,3.9c-0.6-0.3-1.2-0.4-3.2-0.5c-1.2-0.1-3.9-0.1-6.3-0.1c-0.1,0-0.1,0-0.1,0.1c0,2.7,0,5.7,0,8.5
			c0,0.1,0,0.2,0.1,0.2c0.7,0,4.5,0,5.7-0.1c2.2,0,2.9-0.2,3.3-0.3c-0.1,0.5-0.3,2.8-0.4,4c-0.5-0.3-1.4-0.5-2.9-0.6
			c-1.2-0.1-3.8-0.1-5.8-0.1c-0.1,0-0.1,0.1-0.1,0.2v1.8c0,3.4,0.1,9.2,0.4,10.4c-0.3,0-0.9-0.1-2.3-0.1c-0.9,0-2.5,0.1-2.9,0.1
			c0.2-1.2,0.4-5.2,0.4-10.5V353.9z"/>
		<path fill="#7D002E" d="M431.1,357.3c0-7.2,4.8-14.4,14.6-14.4c8.7,0,14.1,6.1,14.1,13.5c0,8.3-5.4,14.8-14.6,14.8
			C435.4,371.2,431.1,363.7,431.1,357.3z M454.7,357.5c0-6.4-3.7-11.8-9.9-11.8c-5,0-8.6,3.9-8.6,10.5c0,6.9,3.7,12.2,9.9,12.2
			C449.7,368.4,454.7,366,454.7,357.5z"/>
		<path fill="#7D002E" d="M467.6,353.9c0-5.2-0.1-9.1-0.5-10.4c0.8,0,1.5,0.1,2.2,0.1c0.7,0,3.9-0.1,5.4-0.1c2.9,0,5.2,0.4,6.8,1.3
			c1.9,1.1,3.4,3.2,3.4,6c0,3-1.6,5.6-4.4,7.5c2.2,3,4.7,6.6,7,9.2c1.6,1.8,2.7,2.8,3.5,3.2c-0.6,0.2-2.1,0.3-3.2,0.3
			c-2.2,0-3.2-0.6-4.5-1.9c-2.1-2-5.1-7-6.6-9c-0.1-0.2-0.3-0.3-0.4-0.3c-0.8,0-2.8,0-4.1,0c-0.1,0-0.1,0.1-0.1,0.2v1
			c0,4.3,0.2,8.1,0.4,9.8c-0.5,0-1.3-0.1-2.2-0.1c-0.9,0-2.6,0.1-3.1,0.1c0.2-1.5,0.4-5.9,0.4-10.5V353.9z M472,356.3
			c0,0.3,0,0.3,0.1,0.4c0.7,0.2,2.2,0.3,3.9,0.3c1,0,1.6-0.1,2-0.4c1.2-0.9,2.3-2.5,2.3-4.8c0-3.8-2.7-5.7-6-5.7c-1,0-1.9,0-2.3,0.1
			c-0.1,0-0.1,0.1-0.1,0.3V356.3z"/>
		<path fill="#7D002E" d="M495.6,343.5c1.5,0,2.7,0,3.3-0.1c-0.2,1.3-0.4,5.4-0.4,10.5v4.8c0,4.5,0.9,6.3,2.5,7.7
			c1.6,1.3,3.5,1.5,4.8,1.5s3.3-0.4,4.5-1.6c1.8-1.8,2.2-4,2.2-8.5v-3.9c0-5.2-0.3-9.1-0.5-10.4c0.5,0,1.4,0.1,1.9,0.1
			c1.2,0,2.2-0.1,2.5-0.1c-0.2,1.3-0.4,5.4-0.4,10.5v3.9c0,4.2-0.3,8.4-3.6,11.1c-2.2,1.9-5,2.3-7.4,2.3c-2.9,0-6-0.6-8-2.4
			c-1.8-1.6-3.1-4-3.1-9.2v-5.7c0-5.2-0.2-9.3-0.5-10.4C494,343.5,494.8,343.5,495.6,343.5z"/>
		<path fill="#7D002E" d="M526.4,349c0.2-2,0.4-3.9,0.7-5.6c0.1-0.5,0.1-0.6,0.3-0.6c0.1,0,0.3,0.3,0.5,0.6c0.8,1.1,2.3,3.9,3.4,5.8
			l7.8,13.9l6.5-11.8c2.4-3.8,3.3-5.6,4.3-7.5c0.5-0.9,0.7-1.1,0.9-1.1s0.3,0.1,0.4,1.1c0.2,1.8,0.4,3.7,0.6,5.6
			c0.9,8.4,2.1,18.8,2.7,21.1c-0.4,0-1-0.1-2.2-0.1c-1.3,0-2.5,0-3.1,0.1c0-2.7-0.8-11.9-1.2-17.7c-3,5.7-6.8,12.3-9.3,17.6
			c-0.2,0.5-0.4,0.5-0.6,0c-2.9-6-6.5-12.5-8.9-17.6c-0.4,6-1.1,15-1.1,17.6c-0.5-0.1-1.5-0.1-1.9-0.1c-1.3,0-2.2,0.1-2.7,0.1
			C524,368.4,525.4,357.5,526.4,349z"/>
	</g>
	<g>
		<path fill="#7D002E" d="M543.8,98.6c0-0.4,0.4-0.8,0.8-0.8h16.8v-18c0-8.8-7.9-17.1-16.8-17.1h-37.9c-11.1,0-20.4-9.3-20.4-20.6
			V24.4c0-11.2,8-24.4,25.6-24.4c12,0,23.2,7.5,24.7,8.5c0.7,0.4,0.8,1.2,0.3,2l-0.8,1.3c-0.5,0.9-1.3,0.8-1.9,0.4
			c-0.7-0.4-11.2-7.6-22-7.6c-16,0-21.1,11.7-21.1,19.8v17.7c0,8.7,6.9,15.9,15.6,15.9h37.5c11.9,0,21.8,9.9,21.8,21.8v21.1
			c0,0.8-0.7,1.5-1.5,1.5h-19.9c-0.4,0-0.8-0.4-0.8-0.8V98.6z"/>
		<path fill="#7D002E" d="M505.8,148.6c-6.3,0.8-14.9,5.2-14.9,15.9c0,0.4-0.3,0.7-0.8,0.7h-2.9c-0.4,0-0.8-0.3-0.8-0.7
			c0-9.6,4.8-14.9,11.5-18.4c-7.9-4.1-11.5-11.2-11.5-19.2v-14.5c0-6.5,2.8-11.5,6.1-14.8c0.7-0.7,1.5-0.5,2,0l1.1,0.9
			c0.5,0.5,0.5,1.5,0,2c-2.3,2.4-4.7,8.3-4.7,11.9v14.5c0,11.5,10.9,18.2,19,16.9l18.4-2.8c7.9-1.2,15.6-8.3,15.6-17.1v-2.5
			c0-0.4,0.4-0.8,0.8-0.8h2.7c0.3,0,0.7,0.4,0.7,0.8v2.5c0,9.3-6.5,20-18.6,21.6L505.8,148.6z"/>
		<path fill="#7D002E" d="M497.3,190.1c-6.5-3.5-10.9-10.3-10.9-18.1v-8.8c0-0.4,0.4-0.7,0.8-0.7h2.9c0.5,0,0.8,0.3,0.8,0.7v8.7
			c0,9.1,7.1,16,16.3,16h36.6c0.4,0,0.7,0.1,0.7,0.7v3.3c0,0.5-0.3,0.7-0.5,0.7h-36.7c-9.2,0-16.3,7.1-16.3,15.9
			c0,0.4-0.3,0.7-0.8,0.7h-2.9c-0.4,0-0.8-0.3-0.8-0.7C486.3,200.5,490.7,193.6,497.3,190.1z M566.1,178.6c0.5,0,0.8,0.4,0.8,0.9
			v6.1c0,0.5-0.3,0.8-0.8,0.8H560c-0.5,0-0.9-0.3-0.9-0.8v-6.1c0-0.5,0.4-0.9,0.9-0.9H566.1z M566.1,193.7c0.5,0,0.8,0.4,0.8,0.9
			v6.1c0,0.5-0.3,0.8-0.8,0.8H560c-0.5,0-0.9-0.3-0.9-0.8v-6.1c0-0.5,0.4-0.9,0.9-0.9H566.1z"/>
		<path fill="#7D002E" d="M497.3,234c-6.5-3.5-10.9-10.3-10.9-18.1V207c0-0.4,0.4-0.7,0.8-0.7h2.9c0.5,0,0.8,0.3,0.8,0.7v8.7
			c0,9.1,7.1,16,16.3,16h36.6c0.4,0,0.7,0.1,0.7,0.7v3.3c0,0.5-0.3,0.7-0.5,0.7h-36.7c-9.2,0-16.3,7.1-16.3,15.9
			c0,0.4-0.3,0.7-0.8,0.7h-2.9c-0.4,0-0.8-0.3-0.8-0.7C486.3,244.4,490.7,237.5,497.3,234z M566,230c0.5,0,0.8,0.4,0.8,0.9v6.1
			c0,0.5-0.3,0.8-0.8,0.8h-6.1c-0.5,0-0.9-0.3-0.9-0.8v-6.1c0-0.5,0.4-0.9,0.9-0.9H566z"/>
		<path fill="#7D002E" d="M494.6,273.4c-5.1-2.4-8.3-6.9-8.3-15.2v-7.2c0-0.4,0.4-0.7,0.8-0.7h2.9c0.5,0,0.8,0.3,0.8,0.7v6.5
			c0,10.4,4,13.6,16.9,13.6h16.3c11.9,0,21.6,9.7,21.6,21.6v4.3c0,11.9-9.7,21.6-21.6,21.6h-17.5c-12,0-21.6-9.7-21.6-21.6
			C487.9,289.2,491.4,280.8,494.6,273.4z M498.5,274.6c-2.7,6.1-6.5,15.6-8.9,22.4c0,10.4,8.8,17.1,17.1,17.1h17.5
			c7.6,0,17.1-5.7,17.1-17.1v-4.4c0-8.7-7.3-16.9-17.1-16.9h-16.3C504.5,275.6,501.3,275.4,498.5,274.6z"/>
	</g>
</g>
</svg>
